<?xml version="1.0" encoding="UTF-8"?>
<svg xmlns="http://www.w3.org/2000/svg" xmlns:xlink="http://www.w3.org/1999/xlink"
     width="1000" height="400" viewBox="-500.0 -200.0 1000 400">
<defs>
</defs>
<path d="M-316.3258269214968,-132.01842176726592 L-359.9406812600657,-87.51649166917221" stroke="grey" />
<path d="M-359.9406812600657,-87.51649166917221 L-351.0995125883888,132.01842176726592" stroke="grey" />
<path d="M-351.0995125883888,132.01842176726592 L-307.4846582498199,87.51649166917221" stroke="grey" />
<path d="M-307.4846582498199,87.51649166917221 L-316.3258269214968,-132.01842176726592" stroke="grey" />
<path d="M-315.3457603436555,-132.01842176726592 L-358.9606146822244,-87.51649166917221" stroke="grey" />
<path d="M-358.9606146822244,-87.51649166917221 L-350.1194460105475,132.01842176726592" stroke="grey" />
<path d="M-350.1194460105475,132.01842176726592 L-306.50459167197863,87.51649166917221" stroke="grey" />
<path d="M-306.50459167197863,87.51649166917221 L-315.3457603436555,-132.01842176726592" stroke="grey" />
<path d="M-316.3258269214968,-132.01842176726592 L-315.3457603436555,-132.01842176726592" stroke="grey" />
<path d="M-359.9406812600657,-87.51649166917221 L-358.9606146822244,-87.51649166917221" stroke="grey" />
<path d="M-307.4846582498199,87.51649166917221 L-306.50459167197863,87.51649166917221" stroke="grey" />
<path d="M-351.0995125883888,132.01842176726592 L-350.1194460105475,132.01842176726592" stroke="grey" />
<text x="-340.0" y="142.01842176726592" font-size="10" fill="black" text-anchor="middle"><tspan x="-340.0" dy="0.0em">Image</tspan><tspan x="-340.0" dy="1em">224x224x1</tspan></text>
<path d="M-265.23518708990406,-66.00921088363296 L-287.04261425918844,-43.758245834586106" stroke="#005abe" />
<path d="M-287.04261425918844,-43.758245834586106 L-282.62202992335,66.00921088363296" stroke="#005abe" />
<path d="M-282.62202992335,66.00921088363296 L-260.8146027540656,43.758245834586106" stroke="#005abe" />
<path d="M-260.8146027540656,43.758245834586106 L-265.23518708990406,-66.00921088363296" stroke="#005abe" />
<path d="M-233.8730565989843,-66.00921088363296 L-255.68048376826874,-43.758245834586106" stroke="#005abe" />
<path d="M-255.68048376826874,-43.758245834586106 L-251.2598994324303,66.00921088363296" stroke="#005abe" />
<path d="M-251.2598994324303,66.00921088363296 L-229.45247226314586,43.758245834586106" stroke="#005abe" />
<path d="M-229.45247226314586,43.758245834586106 L-233.8730565989843,-66.00921088363296" stroke="#005abe" />
<path d="M-265.23518708990406,-66.00921088363296 L-233.8730565989843,-66.00921088363296" stroke="#005abe" />
<path d="M-287.04261425918844,-43.758245834586106 L-255.68048376826874,-43.758245834586106" stroke="#005abe" />
<path d="M-260.8146027540656,43.758245834586106 L-229.45247226314586,43.758245834586106" stroke="#005abe" />
<path d="M-282.62202992335,66.00921088363296 L-251.2598994324303,66.00921088363296" stroke="#005abe" />
<text x="-263.5" y="76.00921088363296" font-size="10" fill="black" text-anchor="middle"><tspan x="-263.5" dy="0.5em">112x112x32</tspan></text>
<path d="M-277.4333735874049,3.576047954311102 L-337.789764939437,15.36340704067413" stroke="grey" />
<path d="M-277.4333735874049,3.576047954311102 L-338.5791549994082,-4.237924516150702" stroke="grey" />
<path d="M-277.4333735874049,3.576047954311102 L-334.6849715763217,-8.211311132051925" stroke="grey" />
<path d="M-277.4333735874049,3.576047954311102 L-333.89558151635055,11.390020424772906" stroke="grey" />
<path d="M-337.789764939437,15.36340704067413 L-338.5791549994082,-4.237924516150702" stroke="grey" />
<path d="M-338.5791549994082,-4.237924516150702 L-334.6849715763217,-8.211311132051925" stroke="grey" />
<path d="M-334.6849715763217,-8.211311132051925 L-333.89558151635055,11.390020424772906" stroke="grey" />
<path d="M-333.89558151635055,11.390020424772906 L-337.789764939437,15.36340704067413" stroke="grey" />
<path d="M-179.4157726368713,-33.00460544181648 L-190.3194862215135,-21.879122917293053" stroke="#005abe" />
<path d="M-190.3194862215135,-21.879122917293053 L-188.10919405359428,33.00460544181648" stroke="#005abe" />
<path d="M-188.10919405359428,33.00460544181648 L-177.2054804689521,21.879122917293053" stroke="#005abe" />
<path d="M-177.2054804689521,21.879122917293053 L-179.4157726368713,-33.00460544181648" stroke="#005abe" />
<path d="M-116.69151165503185,-33.00460544181648 L-127.59522523967406,-21.879122917293053" stroke="#005abe" />
<path d="M-127.59522523967406,-21.879122917293053 L-125.38493307175484,33.00460544181648" stroke="#005abe" />
<path d="M-125.38493307175484,33.00460544181648 L-114.48121948711263,21.879122917293053" stroke="#005abe" />
<path d="M-114.48121948711263,21.879122917293053 L-116.69151165503185,-33.00460544181648" stroke="#005abe" />
<path d="M-179.4157726368713,-33.00460544181648 L-116.69151165503185,-33.00460544181648" stroke="#005abe" />
<path d="M-190.3194862215135,-21.879122917293053 L-127.59522523967406,-21.879122917293053" stroke="#005abe" />
<path d="M-177.2054804689521,21.879122917293053 L-114.48121948711263,21.879122917293053" stroke="#005abe" />
<path d="M-188.10919405359428,33.00460544181648 L-125.38493307175484,33.00460544181648" stroke="#005abe" />
<text x="-155.5" y="43.00460544181648" font-size="10" fill="black" text-anchor="middle"><tspan x="-155.5" dy="0.5em">56x56x64</tspan></text>
<path d="M-184.77549870400298,0.013280076134064456 L-245.13189005603516,11.800639162497093" stroke="grey" />
<path d="M-184.77549870400298,0.013280076134064456 L-245.9212801160063,-7.80069239432774" stroke="grey" />
<path d="M-184.77549870400298,0.013280076134064456 L-242.0270966929198,-11.774079010228965" stroke="grey" />
<path d="M-184.77549870400298,0.013280076134064456 L-241.23770663294866,7.8272525465958696" stroke="grey" />
<path d="M-245.13189005603516,11.800639162497093 L-245.9212801160063,-7.80069239432774" stroke="grey" />
<path d="M-245.9212801160063,-7.80069239432774 L-242.0270966929198,-11.774079010228965" stroke="grey" />
<path d="M-242.0270966929198,-11.774079010228965 L-241.23770663294866,7.8272525465958696" stroke="grey" />
<path d="M-241.23770663294866,7.8272525465958696 L-245.13189005603516,11.800639162497093" stroke="grey" />
<path d="M-60.06087233873809,-16.50230272090824 L-65.5127291310592,-10.939561458646526" stroke="#005abe" />
<path d="M-65.5127291310592,-10.939561458646526 L-64.40758304709959,16.50230272090824" stroke="#005abe" />
<path d="M-64.40758304709959,16.50230272090824 L-58.95572625477848,10.939561458646526" stroke="#005abe" />
<path d="M-58.95572625477848,10.939561458646526 L-60.06087233873809,-16.50230272090824" stroke="#005abe" />
<path d="M65.38764962494083,-16.50230272090824 L59.935792832619725,-10.939561458646526" stroke="#005abe" />
<path d="M59.935792832619725,-10.939561458646526 L61.040938916579336,16.50230272090824" stroke="#005abe" />
<path d="M61.040938916579336,16.50230272090824 L66.49279570890045,10.939561458646526" stroke="#005abe" />
<path d="M66.49279570890045,10.939561458646526 L65.38764962494083,-16.50230272090824" stroke="#005abe" />
<path d="M-60.06087233873809,-16.50230272090824 L65.38764962494083,-16.50230272090824" stroke="#005abe" />
<path d="M-65.5127291310592,-10.939561458646526 L59.935792832619725,-10.939561458646526" stroke="#005abe" />
<path d="M-58.95572625477848,10.939561458646526 L66.49279570890045,10.939561458646526" stroke="#005abe" />
<path d="M-64.40758304709959,16.50230272090824 L61.040938916579336,16.50230272090824" stroke="#005abe" />
<text x="0.5" y="26.50230272090824" font-size="10" fill="black" text-anchor="middle"><tspan x="0.5" dy="0.5em">28x28x128</tspan></text>
<path d="M-61.33698249930587,2.1455224103434802 L-121.69337385133805,13.932881496706509" stroke="grey" />
<path d="M-61.33698249930587,2.1455224103434802 L-122.48276391130919,-5.6684500601183245" stroke="grey" />
<path d="M-61.33698249930587,2.1455224103434802 L-118.58858048822269,-9.641836676019548" stroke="grey" />
<path d="M-61.33698249930587,2.1455224103434802 L-117.79919042825155,9.959494880805284" stroke="grey" />
<path d="M-121.69337385133805,13.932881496706509 L-122.48276391130919,-5.6684500601183245" stroke="grey" />
<path d="M-122.48276391130919,-5.6684500601183245 L-118.58858048822269,-9.641836676019548" stroke="grey" />
<path d="M-118.58858048822269,-9.641836676019548 L-117.79919042825155,9.959494880805284" stroke="grey" />
<path d="M-117.79919042825155,9.959494880805284 L-121.69337385133805,13.932881496706509" stroke="grey" />
<path d="M126.36499964959609,-33.00460544181648 L115.46128606495387,-21.879122917293053" stroke="#be2000" />
<path d="M115.46128606495387,-21.879122917293053 L117.67157823287309,33.00460544181648" stroke="#be2000" />
<path d="M117.67157823287309,33.00460544181648 L128.5752918175153,21.879122917293053" stroke="#be2000" />
<path d="M128.5752918175153,21.879122917293053 L126.36499964959609,-33.00460544181648" stroke="#be2000" />
<path d="M189.08926063143554,-33.00460544181648 L178.18554704679335,-21.879122917293053" stroke="#be2000" />
<path d="M178.18554704679335,-21.879122917293053 L180.39583921471257,33.00460544181648" stroke="#be2000" />
<path d="M180.39583921471257,33.00460544181648 L191.29955279935476,21.879122917293053" stroke="#be2000" />
<path d="M191.29955279935476,21.879122917293053 L189.08926063143554,-33.00460544181648" stroke="#be2000" />
<path d="M126.36499964959609,-33.00460544181648 L189.08926063143554,-33.00460544181648" stroke="#be2000" />
<path d="M115.46128606495387,-21.879122917293053 L178.18554704679335,-21.879122917293053" stroke="#be2000" />
<path d="M128.5752918175153,21.879122917293053 L191.29955279935476,21.879122917293053" stroke="#be2000" />
<path d="M117.67157823287309,33.00460544181648 L180.39583921471257,33.00460544181648" stroke="#be2000" />
<text x="156.5" y="43.00460544181648" font-size="10" fill="black" text-anchor="middle"><tspan x="156.5" dy="0.5em">56x56x64</tspan></text>
<path d="M63.91683029321873,2.3441917411385416 L121.16842828213555,14.13155082750157" stroke="grey" />
<path d="M63.91683029321873,2.3441917411385416 L120.37903822216441,-5.469780729323263" stroke="grey" />
<path d="M63.91683029321873,2.3441917411385416 L124.27322164525091,-9.443167345224488" stroke="grey" />
<path d="M63.91683029321873,2.3441917411385416 L125.06261170522207,10.158164211600345" stroke="grey" />
<path d="M121.16842828213555,14.13155082750157 L120.37903822216441,-5.469780729323263" stroke="grey" />
<path d="M120.37903822216441,-5.469780729323263 L124.27322164525091,-9.443167345224488" stroke="grey" />
<path d="M124.27322164525091,-9.443167345224488 L125.06261170522207,10.158164211600345" stroke="grey" />
<path d="M125.06261170522207,10.158164211600345 L121.16842828213555,14.13155082750157" stroke="grey" />
<path d="M252.23996601027153,-66.00921088363296 L230.4325388409871,-43.758245834586106" stroke="#be2000" />
<path d="M230.4325388409871,-43.758245834586106 L234.85312317682553,66.00921088363296" stroke="#be2000" />
<path d="M234.85312317682553,66.00921088363296 L256.66055034610997,43.758245834586106" stroke="#be2000" />
<path d="M256.66055034610997,43.758245834586106 L252.23996601027153,-66.00921088363296" stroke="#be2000" />
<path d="M283.6020965011912,-66.00921088363296 L261.79466933190685,-43.758245834586106" stroke="#be2000" />
<path d="M261.79466933190685,-43.758245834586106 L266.2152536677453,66.00921088363296" stroke="#be2000" />
<path d="M266.2152536677453,66.00921088363296 L288.02268083702967,43.758245834586106" stroke="#be2000" />
<path d="M288.02268083702967,43.758245834586106 L283.6020965011912,-66.00921088363296" stroke="#be2000" />
<path d="M252.23996601027153,-66.00921088363296 L283.6020965011912,-66.00921088363296" stroke="#be2000" />
<path d="M230.4325388409871,-43.758245834586106 L261.79466933190685,-43.758245834586106" stroke="#be2000" />
<path d="M256.66055034610997,43.758245834586106 L288.02268083702967,43.758245834586106" stroke="#be2000" />
<path d="M234.85312317682553,66.00921088363296 L266.2152536677453,66.00921088363296" stroke="#be2000" />
<text x="264.5" y="76.00921088363296" font-size="10" fill="black" text-anchor="middle"><tspan x="264.5" dy="0.5em">112x112x32</tspan></text>
<path d="M187.93683566754038,-1.2185761370384962 L245.18843365645716,10.568782949324532" stroke="grey" />
<path d="M187.93683566754038,-1.2185761370384962 L244.39904359648602,-9.032548607500301" stroke="grey" />
<path d="M187.93683566754038,-1.2185761370384962 L248.29322701957253,-13.005935223401526" stroke="grey" />
<path d="M187.93683566754038,-1.2185761370384962 L249.08261707954367,6.5953963334233086" stroke="grey" />
<path d="M245.18843365645716,10.568782949324532 L244.39904359648602,-9.032548607500301" stroke="grey" />
<path d="M244.39904359648602,-9.032548607500301 L248.29322701957253,-13.005935223401526" stroke="grey" />
<path d="M248.29322701957253,-13.005935223401526 L249.08261707954367,6.5953963334233086" stroke="grey" />
<path d="M249.08261707954367,6.5953963334233086 L245.18843365645716,10.568782949324532" stroke="grey" />
<path d="M351.0995125883888,-132.01842176726592 L307.4846582498199,-87.51649166917221" stroke="#be9200" />
<path d="M307.4846582498199,-87.51649166917221 L316.3258269214968,132.01842176726592" stroke="#be9200" />
<path d="M316.3258269214968,132.01842176726592 L359.9406812600657,87.51649166917221" stroke="#be9200" />
<path d="M359.9406812600657,87.51649166917221 L351.0995125883888,-132.01842176726592" stroke="#be9200" />
<path d="M352.07957916623,-132.01842176726592 L308.46472482766114,-87.51649166917221" stroke="#be9200" />
<path d="M308.46472482766114,-87.51649166917221 L317.305893499338,132.01842176726592" stroke="#be9200" />
<path d="M317.305893499338,132.01842176726592 L360.9207478379069,87.51649166917221" stroke="#be9200" />
<path d="M360.9207478379069,87.51649166917221 L352.07957916623,-132.01842176726592" stroke="#be9200" />
<path d="M351.0995125883888,-132.01842176726592 L352.07957916623,-132.01842176726592" stroke="#be9200" />
<path d="M307.4846582498199,-87.51649166917221 L308.46472482766114,-87.51649166917221" stroke="#be9200" />
<path d="M359.9406812600657,87.51649166917221 L360.9207478379069,87.51649166917221" stroke="#be9200" />
<path d="M316.3258269214968,132.01842176726592 L317.305893499338,132.01842176726592" stroke="#be9200" />
<text x="341.0" y="142.01842176726592" font-size="10" fill="black" text-anchor="middle"><tspan x="341.0" dy="0.5em">224x224x1</tspan></text>
<path d="M279.5658651291413,-35.362077259089084 L336.81746311805813,-23.574718172726055" stroke="grey" />
<path d="M279.5658651291413,-35.362077259089084 L336.028073058087,-43.17604972955089" stroke="grey" />
<path d="M279.5658651291413,-35.362077259089084 L339.9222564811735,-47.14943634545211" stroke="grey" />
<path d="M279.5658651291413,-35.362077259089084 L340.71164654114466,-27.54810478862728" stroke="grey" />
<path d="M336.81746311805813,-23.574718172726055 L336.028073058087,-43.17604972955089" stroke="grey" />
<path d="M336.028073058087,-43.17604972955089 L339.9222564811735,-47.14943634545211" stroke="grey" />
<path d="M339.9222564811735,-47.14943634545211 L340.71164654114466,-27.54810478862728" stroke="grey" />
<path d="M340.71164654114466,-27.54810478862728 L336.81746311805813,-23.574718172726055" stroke="grey" />
<text x="-100" y="100" font-size="10">3 by 3 Convolution + ReLU + Batch Normalization</text>
<path d="M-117.86411259551772,90.15284508526017 L-119.81120430706099,92.13953839321078" stroke="#005abe" />
<path d="M-119.81120430706099,92.13953839321078 L-119.4165092770754,101.9402041716232" stroke="#005abe" />
<path d="M-119.4165092770754,101.9402041716232 L-117.46941756553215,99.95351086367258" stroke="#005abe" />
<path d="M-117.46941756553215,99.95351086367258 L-117.86411259551772,90.15284508526017" stroke="#005abe" />
<path d="M-108.06344681710533,90.15284508526017 L-110.01053852864858,92.13953839321078" stroke="#005abe" />
<path d="M-110.01053852864858,92.13953839321078 L-109.615843498663,101.9402041716232" stroke="#005abe" />
<path d="M-109.615843498663,101.9402041716232 L-107.66875178711975,99.95351086367258" stroke="#005abe" />
<path d="M-107.66875178711975,99.95351086367258 L-108.06344681710533,90.15284508526017" stroke="#005abe" />
<path d="M-117.86411259551772,90.15284508526017 L-108.06344681710533,90.15284508526017" stroke="#005abe" />
<path d="M-119.81120430706099,92.13953839321078 L-110.01053852864858,92.13953839321078" stroke="#005abe" />
<path d="M-117.46941756553215,99.95351086367258 L-107.66875178711975,99.95351086367258" stroke="#005abe" />
<path d="M-119.4165092770754,101.9402041716232 L-109.615843498663,101.9402041716232" stroke="#005abe" />
<text x="-100" y="130" font-size="10">3 by 3 Transposed Convolution + ReLU + Batch Normalization</text>
<path d="M-116.68002750556101,119.55484242049741 L-118.62711921710427,121.54153572844803" stroke="#be2000" />
<path d="M-118.62711921710427,121.54153572844803 L-118.23242418711868,131.34220150686042" stroke="#be2000" />
<path d="M-118.23242418711868,131.34220150686042 L-116.28533247557543,129.35550819890983" stroke="#be2000" />
<path d="M-116.28533247557543,129.35550819890983 L-116.68002750556101,119.55484242049741" stroke="#be2000" />
<path d="M-106.87936172714859,119.55484242049741 L-108.82645343869186,121.54153572844803" stroke="#be2000" />
<path d="M-108.82645343869186,121.54153572844803 L-108.43175840870627,131.34220150686042" stroke="#be2000" />
<path d="M-108.43175840870627,131.34220150686042 L-106.48466669716302,129.35550819890983" stroke="#be2000" />
<path d="M-106.48466669716302,129.35550819890983 L-106.87936172714859,119.55484242049741" stroke="#be2000" />
<path d="M-116.68002750556101,119.55484242049741 L-106.87936172714859,119.55484242049741" stroke="#be2000" />
<path d="M-118.62711921710427,121.54153572844803 L-108.82645343869186,121.54153572844803" stroke="#be2000" />
<path d="M-116.28533247557543,129.35550819890983 L-106.48466669716302,129.35550819890983" stroke="#be2000" />
<path d="M-118.23242418711868,131.34220150686042 L-108.43175840870627,131.34220150686042" stroke="#be2000" />
<text x="-100" y="160" font-size="10">3 by 3 Transposed Convolution</text>
<path d="M-115.49594241560429,148.95683975573468 L-117.44303412714754,150.94353306368527" stroke="#be9200" />
<path d="M-117.44303412714754,150.94353306368527 L-117.04833909716196,160.7441988420977" stroke="#be9200" />
<path d="M-117.04833909716196,160.7441988420977 L-115.1012473856187,158.7575055341471" stroke="#be9200" />
<path d="M-115.1012473856187,158.7575055341471 L-115.49594241560429,148.95683975573468" stroke="#be9200" />
<path d="M-105.69527663719188,148.95683975573468 L-107.64236834873513,150.94353306368527" stroke="#be9200" />
<path d="M-107.64236834873513,150.94353306368527 L-107.24767331874955,160.7441988420977" stroke="#be9200" />
<path d="M-107.24767331874955,160.7441988420977 L-105.3005816072063,158.7575055341471" stroke="#be9200" />
<path d="M-105.3005816072063,158.7575055341471 L-105.69527663719188,148.95683975573468" stroke="#be9200" />
<path d="M-115.49594241560429,148.95683975573468 L-105.69527663719188,148.95683975573468" stroke="#be9200" />
<path d="M-117.44303412714754,150.94353306368527 L-107.64236834873513,150.94353306368527" stroke="#be9200" />
<path d="M-115.1012473856187,158.7575055341471 L-105.3005816072063,158.7575055341471" stroke="#be9200" />
<path d="M-117.04833909716196,160.7441988420977 L-107.24767331874955,160.7441988420977" stroke="#be9200" />
</svg>